<svg width="19" height="19" viewBox="0 0 19 19" fill="none" xmlns="http://www.w3.org/2000/svg">
<g clip-path="url(#clip0_191_10999)">
<path d="M3.34342 18.3554H9.21705V11.9542H7.10677V9.84394H9.21705V7.20608C9.21705 5.75155 10.4004 4.56823 11.8549 4.56823H14.4928V6.67851H12.3825C11.8006 6.67851 11.3273 7.15182 11.3273 7.73366V9.84394H14.3976L14.0458 11.9542H11.3273V18.3554H16.0755C17.53 18.3554 18.7133 17.1721 18.7133 15.7176V2.98551C18.7133 1.53098 17.53 0.347656 16.0755 0.347656H3.34342C1.88889 0.347656 0.705566 1.53098 0.705566 2.98551V15.7176C0.705566 17.1721 1.88889 18.3554 3.34342 18.3554ZM1.76071 2.98551C1.76071 2.11282 2.47073 1.4028 3.34342 1.4028H16.0755C16.9482 1.4028 17.6582 2.11282 17.6582 2.98551V15.7176C17.6582 16.5903 16.9482 17.3003 16.0755 17.3003H12.3825V13.0094H14.9397L15.6431 8.7888H12.3825V7.73366H15.5479V3.51308H11.8549C9.81854 3.51308 8.16191 5.16971 8.16191 7.20608V8.7888H6.05162V13.0094H8.16191V17.3003H3.34342C2.47073 17.3003 1.76071 16.5903 1.76071 15.7176V2.98551Z" fill="#F1D1C0"/>
</g>
<defs>
<clipPath id="clip0_191_10999">
<rect width="18.0078" height="18.0078" fill="white" transform="translate(0.705566 0.347656)"/>
</clipPath>
</defs>
</svg>
