<svg width="18" height="18" viewBox="0 0 18 18" fill="none" xmlns="http://www.w3.org/2000/svg">
<g clip-path="url(#clip0_191_11032)">
<path d="M14.9651 3.18309C13.3866 1.60456 11.2883 0.735352 9.05581 0.735352C9.05568 0.735352 9.05515 0.735352 9.05502 0.735352C7.95086 0.735483 6.87484 0.949267 5.85707 1.37092C4.83916 1.79257 3.92722 2.40224 3.14637 3.18309C1.56797 4.76149 0.698767 6.86015 0.698767 9.09239C0.698767 10.4236 1.01997 11.7466 1.62858 12.9253L0.223866 16.9382C0.124863 17.2213 0.194941 17.529 0.407147 17.7411C0.555587 17.8896 0.750964 17.9685 0.951863 17.9685C1.03798 17.9685 1.12502 17.9541 1.20996 17.9243L5.22295 16.5198C6.40165 17.1284 7.72459 17.4496 9.05581 17.4496C11.2881 17.4496 13.3866 16.5802 14.9651 15.0018C16.5435 13.4234 17.4129 11.3248 17.4129 9.09253C17.4129 6.86015 16.5436 4.76149 14.9651 3.18309ZM14.2504 14.2871C12.8629 15.6747 11.018 16.4388 9.05581 16.4388C7.85541 16.4388 6.6629 16.1419 5.60713 15.5799C5.41569 15.4782 5.18942 15.4607 4.98628 15.5318L1.34038 16.8078L2.61651 13.1619C2.68764 12.9585 2.67003 12.7322 2.56826 12.5409C2.00645 11.4854 1.70944 10.2929 1.70944 9.09239C1.70944 7.13021 2.4736 5.2853 3.86109 3.89781C5.24845 2.51044 7.0931 1.74629 9.05515 1.74603H9.05581C11.0181 1.74603 12.8629 2.51018 14.2504 3.89781C15.638 5.2853 16.4022 7.13008 16.4022 9.09239C16.4022 11.0547 15.638 12.8996 14.2504 14.2871Z" fill="#F1D1C0"/>
<path d="M12.1619 9.83819C11.7774 9.45375 11.1519 9.45375 10.7674 9.83819L10.347 10.2587C9.30288 9.68975 8.458 8.84487 7.88896 7.8008L8.30943 7.38033C8.69401 6.99589 8.69401 6.37031 8.30943 5.98587L7.17635 4.85279C6.79191 4.46834 6.16633 4.46834 5.78189 4.85279L4.87547 5.7592C4.35627 6.27841 4.33036 7.17102 4.8025 8.27268C5.21245 9.22918 5.96267 10.2805 6.91497 11.2328C7.86727 12.1851 8.91857 12.9353 9.87508 13.3453C10.3985 13.5696 10.8746 13.6814 11.286 13.6814C11.7405 13.6814 12.116 13.5448 12.3886 13.2723L13.295 12.3657V12.3659C13.4813 12.1796 13.5838 11.932 13.5838 11.6686C13.5838 11.4052 13.4813 11.1576 13.295 10.9714L12.1619 9.83819ZM11.6738 12.5576C11.5257 12.7057 11.07 12.7577 10.2733 12.4164C9.43213 12.0558 8.49324 11.3816 7.62969 10.5181C6.76614 9.65452 6.09205 8.71576 5.73153 7.87456C5.39008 7.07793 5.44202 6.62209 5.59019 6.47392L6.47925 5.58486L7.57736 6.6831L7.05105 7.20954C6.81307 7.44752 6.75562 7.80842 6.90826 8.10767C7.60024 9.46453 8.68323 10.5475 10.0401 11.2395C10.3395 11.3921 10.7004 11.3348 10.9383 11.0967L11.4647 10.5704L12.5629 11.6686L11.6738 12.5576Z" fill="#F1D1C0"/>
</g>
<defs>
<clipPath id="clip0_191_11032">
<rect width="17.2332" height="17.2332" fill="white" transform="translate(0.179688 0.735352)"/>
</clipPath>
</defs>
</svg>
