<svg width="19" height="19" viewBox="0 0 19 19" fill="none" xmlns="http://www.w3.org/2000/svg">
<g clip-path="url(#clip0_191_10993)">
<path d="M13.786 0.438477H5.79894C3.08658 0.438477 0.879883 2.64527 0.879883 5.35764V13.3447C0.879883 16.0572 3.08658 18.2639 5.79894 18.2639H13.786C16.4986 18.2639 18.7053 16.0571 18.7053 13.3447V5.35764C18.7054 2.64527 16.4986 0.438477 13.786 0.438477ZM17.1238 13.3447C17.1238 15.1851 15.6265 16.6823 13.7861 16.6823H5.79894C3.95865 16.6824 2.46144 15.1851 2.46144 13.3447V5.35764C2.46144 3.51734 3.95865 2.02003 5.79894 2.02003H13.786C15.6264 2.02003 17.1237 3.51734 17.1237 5.35764V13.3447H17.1238Z" fill="#F1D1C0"/>
<path d="M9.79286 4.75879C7.26016 4.75879 5.19971 6.81924 5.19971 9.35194C5.19971 11.8845 7.26016 13.9449 9.79286 13.9449C12.3256 13.9449 14.386 11.8845 14.386 9.35194C14.386 6.81924 12.3256 4.75879 9.79286 4.75879ZM9.79286 12.3632C8.13233 12.3632 6.78126 11.0124 6.78126 9.35184C6.78126 7.6912 8.13223 6.34024 9.79286 6.34024C11.4535 6.34024 12.8045 7.6912 12.8045 9.35184C12.8045 11.0124 11.4534 12.3632 9.79286 12.3632Z" fill="#F1D1C0"/>
<path d="M14.5783 3.41699C14.2736 3.41699 13.9742 3.54035 13.759 3.7565C13.5428 3.97159 13.4185 4.27103 13.4185 4.5768C13.4185 4.88162 13.5429 5.18095 13.759 5.3971C13.9741 5.61219 14.2736 5.73661 14.5783 5.73661C14.884 5.73661 15.1824 5.61219 15.3986 5.3971C15.6147 5.18095 15.7381 4.88151 15.7381 4.5768C15.7381 4.27103 15.6147 3.97159 15.3986 3.7565C15.1835 3.54035 14.884 3.41699 14.5783 3.41699Z" fill="#F1D1C0"/>
</g>
<defs>
<clipPath id="clip0_191_10993">
<rect width="17.8255" height="17.8255" fill="white" transform="translate(0.879883 0.438477)"/>
</clipPath>
</defs>
</svg>
