<svg width="19" height="18" viewBox="0 0 19 18" fill="none" xmlns="http://www.w3.org/2000/svg">
<g clip-path="url(#clip0_191_11008)">
<path d="M10.6399 1.27344C6.48244 1.27344 3.10043 4.41418 3.1069 8.35627C3.16614 8.74617 3.20383 9.89002 2.67607 10.5029C2.40788 10.8152 2.01798 10.9671 1.48483 10.9671C1.18755 10.9671 0.946289 11.2084 0.946289 11.5056C0.946289 13.1331 2.29586 14.2457 4.96054 14.8112C4.99824 14.8187 5.03486 14.823 5.07255 14.823C5.32136 14.823 5.54431 14.6496 5.59817 14.3965C5.65956 14.1057 5.4743 13.8203 5.18349 13.7578C3.42463 13.384 2.3928 12.7895 2.1063 11.9882C2.67391 11.8815 3.14029 11.6187 3.4968 11.2019C4.45216 10.0839 4.18397 8.27441 4.17751 8.27441C4.17751 5.00765 7.07591 2.35051 10.6399 2.35051C14.204 2.35051 17.1024 5.00765 17.1024 8.27441C17.1024 10.4996 15.755 12.5213 13.5868 13.5499C13.3175 13.677 13.2034 13.9991 13.3305 14.2672C13.4586 14.5376 13.7828 14.6464 14.0478 14.5236C16.5962 13.3151 18.1795 10.9208 18.1795 8.27441C18.1795 4.41418 14.7964 1.27344 10.6399 1.27344Z" fill="#F1D1C0"/>
<path d="M11.8215 14.6485C11.7913 14.3523 11.5038 14.1358 11.2313 14.1681C11.0341 14.1875 10.837 14.1972 10.6399 14.1972C9.53809 14.1972 8.6549 14.167 7.86109 14.1024C7.56921 14.0863 7.30532 14.2995 7.28055 14.5946C7.25686 14.8908 7.47766 15.1515 7.77385 15.1752C8.59673 15.243 9.50794 15.2743 10.6399 15.2743C10.8747 15.2743 11.1085 15.2624 11.3411 15.2387C11.6373 15.2086 11.8516 14.9436 11.8215 14.6485Z" fill="#F1D1C0"/>
<path d="M12.7948 13.1221C11.6068 13.1221 10.6406 14.0882 10.6406 15.2762C10.6406 16.4642 11.6068 17.4304 12.7948 17.4304C13.9828 17.4304 14.9489 16.4642 14.9489 15.2762C14.9489 14.0882 13.9828 13.1221 12.7948 13.1221ZM12.7948 16.3533C12.2002 16.3533 11.7177 15.8708 11.7177 15.2762C11.7177 14.6817 12.2002 14.1991 12.7948 14.1991C13.3893 14.1991 13.8718 14.6817 13.8718 15.2762C13.8718 15.8708 13.3893 16.3533 12.7948 16.3533Z" fill="#F1D1C0"/>
<path d="M6.3309 13.1221C5.14289 13.1221 4.17676 14.0882 4.17676 15.2762C4.17676 16.4642 5.14289 17.4304 6.3309 17.4304C7.51891 17.4304 8.48505 16.4642 8.48505 15.2762C8.48505 14.0882 7.51891 13.1221 6.3309 13.1221ZM6.3309 16.3533C5.73744 16.3533 5.25383 15.8708 5.25383 15.2762C5.25383 14.6817 5.73744 14.1991 6.3309 14.1991C6.92437 14.1991 7.40798 14.6817 7.40798 15.2762C7.40798 15.8708 6.92437 16.3533 6.3309 16.3533Z" fill="#F1D1C0"/>
<path d="M8.5073 6.12012H8.49653C8.19926 6.12012 7.96338 6.36138 7.96338 6.65865C7.96338 6.95593 8.21003 7.19719 8.5073 7.19719C8.80457 7.19719 9.04584 6.95593 9.04584 6.65865C9.04584 6.36138 8.80457 6.12012 8.5073 6.12012Z" fill="#F1D1C0"/>
<path d="M12.8154 6.12012H12.8046C12.5074 6.12012 12.2715 6.36138 12.2715 6.65865C12.2715 6.95593 12.5192 7.19719 12.8154 7.19719C13.1127 7.19719 13.3539 6.95593 13.3539 6.65865C13.3539 6.36138 13.1127 6.12012 12.8154 6.12012Z" fill="#F1D1C0"/>
<path d="M13.4512 8.82517C13.1593 8.7627 12.8739 8.94257 12.8071 9.23338C12.5777 10.2534 11.6869 10.9664 10.64 10.9664C9.5931 10.9664 8.70236 10.2534 8.47294 9.23338C8.40724 8.94257 8.11966 8.75947 7.82885 8.82624C7.53912 8.89087 7.3571 9.17952 7.42172 9.46818C7.76315 10.9858 9.08688 12.0435 10.64 12.0435C12.1942 12.0435 13.518 10.9847 13.8594 9.46926C13.924 9.17845 13.742 8.89087 13.4512 8.82517Z" fill="#F1D1C0"/>
</g>
<defs>
<clipPath id="clip0_191_11008">
<rect width="17.2332" height="17.2332" fill="white" transform="translate(0.946289 0.735352)"/>
</clipPath>
</defs>
</svg>
