<svg width="18" height="18" viewBox="0 0 18 18" fill="none" xmlns="http://www.w3.org/2000/svg">
<g clip-path="url(#clip0_191_11003)">
<path d="M11.9823 8.57617L8.17513 6.49303C7.95622 6.37325 7.69747 6.37772 7.4829 6.50486C7.2682 6.63213 7.14014 6.85696 7.14014 7.1065V11.237C7.14014 11.4854 7.26741 11.7098 7.48066 11.8372C7.59203 11.9037 7.71548 11.9371 7.83921 11.9371C7.95254 11.9371 8.06614 11.9091 8.17066 11.8529L11.978 9.80562C12.204 9.684 12.3451 9.44905 12.3461 9.19227C12.3471 8.9355 12.2077 8.69949 11.9823 8.57617ZM8.15002 10.7174V7.63031L10.9955 9.18728L8.15002 10.7174Z" fill="#F1D1C0"/>
<path d="M17.8197 5.90195L17.8189 5.89406C17.8043 5.75535 17.6591 4.52156 17.0593 3.89402C16.366 3.1559 15.58 3.06623 15.202 3.02324C15.1707 3.01969 15.142 3.0164 15.1164 3.01298L15.0863 3.00983C12.808 2.84417 9.3674 2.82155 9.33295 2.82142L9.32993 2.82129L9.3269 2.82142C9.29246 2.82155 5.85181 2.84417 3.55304 3.00983L3.52267 3.01298C3.49822 3.01627 3.47126 3.0193 3.44194 3.02271C3.06828 3.06584 2.29072 3.15564 1.59547 3.92045C1.02419 4.54129 0.859057 5.74865 0.842096 5.88433L0.840124 5.90195C0.834996 5.95967 0.713379 7.33375 0.713379 8.71322V10.0028C0.713379 11.3822 0.834996 12.7563 0.840124 12.8142L0.841044 12.8228C0.855638 12.9593 1.00079 14.1705 1.59783 14.7983C2.2497 15.5117 3.07394 15.6061 3.51728 15.6568C3.58736 15.6649 3.64771 15.6717 3.68886 15.6789L3.7287 15.6844C5.04414 15.8096 9.16847 15.8713 9.34334 15.8738L9.3486 15.8739L9.35386 15.8738C9.3883 15.8736 12.8288 15.851 15.1071 15.6854L15.1372 15.6822C15.166 15.6784 15.1983 15.675 15.2338 15.6713C15.6054 15.6319 16.3787 15.5499 17.0644 14.7955C17.6357 14.1746 17.8009 12.9672 17.8178 12.8316L17.8197 12.814C17.8249 12.7562 17.9466 11.3822 17.9466 10.0028V8.71322C17.9465 7.33375 17.8249 5.9598 17.8197 5.90195ZM16.9366 10.0028C16.9366 11.2795 16.8251 12.5945 16.8146 12.7151C16.7717 13.0477 16.5975 13.8115 16.3192 14.1141C15.89 14.5862 15.4492 14.633 15.1273 14.6671C15.0884 14.6711 15.0524 14.6751 15.0198 14.6792C12.8162 14.8385 9.50545 14.863 9.35294 14.8639C9.18188 14.8614 5.11789 14.7992 3.84256 14.6807C3.77721 14.6701 3.70661 14.6619 3.63219 14.6535C3.25472 14.6103 2.73801 14.5511 2.34068 14.1141L2.33135 14.1041C2.05787 13.8192 1.88866 13.1048 1.84567 12.7191C1.83765 12.6278 1.72326 11.2974 1.72326 10.0028V8.71322C1.72326 7.43788 1.83449 6.12441 1.84527 6.00122C1.89642 5.60955 2.07391 4.89194 2.34068 4.6019C2.78298 4.11543 3.24933 4.06152 3.55778 4.02589C3.58723 4.02247 3.61471 4.01932 3.64008 4.01603C5.87573 3.85589 9.21028 3.83209 9.32993 3.83117C9.44957 3.83196 12.7829 3.85589 14.9987 4.01603C15.026 4.01945 15.0557 4.02287 15.0876 4.02655C15.4049 4.06271 15.8844 4.1174 16.3244 4.58678L16.3285 4.59112C16.602 4.87603 16.7712 5.60284 16.8142 5.99635C16.8218 6.08247 16.9366 7.41579 16.9366 8.71322V10.0028Z" fill="#F1D1C0"/>
</g>
<defs>
<clipPath id="clip0_191_11003">
<rect width="17.2332" height="17.2331" fill="white" transform="translate(0.713379 0.735352)"/>
</clipPath>
</defs>
</svg>
