<svg width="242" height="105" viewBox="0 0 242 105" fill="none" xmlns="http://www.w3.org/2000/svg">
<path d="M100.211 53.043C100.394 55.1658 99.6252 57.3251 97.9416 58.8623C96.2581 60.3994 94.0621 60.985 91.976 60.6556C91.793 58.5329 92.5616 56.3736 94.2452 54.8364C95.9287 53.2992 98.1246 52.7137 100.211 53.043ZM86.4861 23.2514C85.498 25.301 85.5712 27.5701 86.4861 29.4733C88.5723 29.0341 90.4023 27.6799 91.3904 25.6304C92.3786 23.5808 92.3054 21.3117 91.3904 19.4085C89.3409 19.8477 87.4743 21.2019 86.4861 23.2514ZM81.2525 22.1535C82.8263 19.9575 83.3752 17.1028 82.5701 14.3579C81.7649 11.5764 79.7153 9.52681 77.2266 8.53864C75.6528 10.7346 75.1038 13.5893 75.909 16.3342C76.7142 19.1158 78.7638 21.1653 81.2525 22.1535ZM88.4259 77.601C85.5712 77.784 83.1191 79.3211 81.6185 81.5171C83.4119 83.4934 86.047 84.6646 88.9017 84.4816C91.7564 84.2986 94.2085 82.7615 95.7091 80.5655C93.9158 78.5892 91.2807 77.418 88.4259 77.601ZM96.0751 65.3769C98.1613 64.6449 100.284 64.0594 102.443 63.6934L102.151 62.083C97.9051 62.8516 93.7694 64.2789 89.9631 66.2553C89.1579 60.0701 90.7317 53.6652 94.355 48.578L93.0374 47.6264C89.0481 53.226 87.4011 60.2897 88.4625 67.0971C83.8876 69.6956 79.8251 73.0993 76.5678 77.1618L77.8122 78.1866C82.1675 72.7699 88.0599 68.5244 94.6478 65.9259C93.7328 67.3533 93.3302 69.1466 93.6596 70.94C94.0622 73.2091 95.4529 75.0025 97.3195 75.9906C98.7468 74.4169 99.4422 72.2209 99.0396 69.9884C98.7102 68.0487 97.5757 66.4017 96.0751 65.3769ZM43.8849 92.9726C44.0313 89.9715 42.7503 87.2265 40.6276 85.3966C38.3584 87.0069 36.7847 89.6055 36.6383 92.6066C36.4919 95.6077 37.7729 98.3526 39.8956 100.183C42.1647 98.5722 43.7385 95.9737 43.8849 92.9726ZM88.9383 41.1484C88.1697 42.2463 87.9501 43.6737 88.3893 45.0645C88.8285 46.4552 89.8899 47.4434 91.1342 47.9192C91.9028 46.8212 92.1224 45.3939 91.6832 44.0031C91.2441 42.6123 90.1827 41.6241 88.9383 41.1484ZM58.3415 31.4862C57.573 32.5842 57.3533 34.0116 57.7925 35.4023C58.2317 36.7931 59.2931 37.7813 60.5374 38.257C61.306 37.1591 61.5257 35.7317 61.0865 34.3409C60.6473 32.9502 59.5859 31.962 58.3415 31.4862ZM28.4035 93.1556C26.4638 93.5948 24.9266 94.9123 24.158 96.5959C25.5854 97.7671 27.5251 98.2794 29.5015 97.8402C31.4412 97.4011 32.9784 96.0835 33.747 94.3999C32.3196 93.2288 30.3799 92.7164 28.4035 93.1556ZM22.8404 85.6528C21.4131 84.0424 19.327 83.0542 17.0212 83.164C14.7155 83.2738 12.7026 84.4816 11.4948 86.2384C12.9221 87.8487 15.0083 88.8369 17.314 88.7271C19.6198 88.6173 21.6327 87.4095 22.8404 85.6528ZM79.7154 70.8668C81.4355 69.6956 82.4237 67.8291 82.5335 65.8893C80.7035 65.3037 78.6174 65.5233 76.8606 66.6945C75.4699 67.6461 74.5915 69.0368 74.2255 70.5374C73.8229 65.9625 73.7863 61.3876 74.1523 56.7761C76.7142 57.1787 79.4226 56.52 81.5453 54.69C83.7412 52.7869 84.8026 50.0419 84.6562 47.3336C81.9845 46.8212 79.1298 47.48 76.9338 49.3831C75.8725 50.2981 75.1038 51.3961 74.5915 52.6039C74.5915 52.6039 74.5915 52.6039 74.5915 52.5673C75.177 48.1022 76.2019 43.6737 77.556 39.355C79.7154 36.9395 82.3505 34.8167 85.2784 33.1698C85.7176 34.8533 86.7789 36.3905 88.3893 37.3421C90.2924 38.4766 92.525 38.5864 94.4282 37.8545C94.172 35.8049 93.0374 33.9018 91.1342 32.7672C90.1095 32.145 89.0115 31.8522 87.9136 31.8156C90.9147 30.4615 94.172 29.5099 97.5025 29.1439L97.3195 27.5335C90.3291 28.3753 83.7046 31.413 78.6906 35.9147C81.1793 29.0341 84.6196 22.4829 88.9017 16.4806L86.3763 14.6873C79.5323 24.2762 74.7745 35.2559 72.4321 46.6748C71.7367 46.3454 71.0414 46.016 70.3826 45.6866C71.6636 43.6371 72.0661 41.0752 71.2976 38.5864C70.4924 35.9513 68.516 33.975 66.1005 33.0966C64.6366 35.1827 64.1241 37.9276 64.9293 40.5628C65.3319 41.8803 66.0639 43.0515 66.9423 44.0031C62.587 41.6974 58.4879 39.0256 54.828 35.1095L52.9248 36.8663C58.5245 42.8685 65.0025 46.0892 71.8832 49.3099C71.7002 50.2615 71.5538 51.2497 71.444 52.2013C69.3944 67.3533 71.5538 82.7981 77.6658 96.8521L80.5205 95.6077C77.2266 87.9951 75.1039 79.9433 74.2255 71.7817C75.9823 72.2575 77.9586 72.0013 79.6056 70.8668H79.7154ZM7.46887 64.0594C7.65186 62.3026 7.02968 60.4726 5.63892 59.1551C4.24815 57.8375 2.4182 57.3251 0.661449 57.5813C0.478454 59.3381 1.10064 61.168 2.4914 62.4856C3.88216 63.8032 5.71212 64.3155 7.46887 64.0594ZM6.48073 49.127C7.8349 47.0408 8.09106 44.5887 7.35908 42.3927C5.05334 42.5757 2.85743 43.7469 1.50327 45.833C0.149103 47.9192 -0.107111 50.3713 0.62487 52.5673C2.93061 52.3843 5.12657 51.2131 6.48073 49.127ZM65.0025 92.57C64.3071 94.9855 64.8196 97.4743 66.1737 99.3774C68.3331 98.499 70.0898 96.7057 70.8218 94.2901C71.5171 91.8746 71.0048 89.3859 69.6506 87.4827C67.4913 88.3611 65.7345 90.1545 65.0025 92.57ZM79.6788 90.2277C79.5324 91.9844 80.2277 93.5948 81.3989 94.7293C82.753 93.851 83.7412 92.3504 83.8876 90.5936C84.034 88.8369 83.3386 87.2265 82.1675 86.092C80.8133 86.9703 79.8252 88.4709 79.6788 90.2277ZM96.7705 45.833C97.9417 47.5166 99.7716 48.4316 101.675 48.5048C102.224 46.6748 101.968 44.6619 100.76 42.9783C99.5886 41.2948 97.7587 40.3798 95.8555 40.3066C95.3065 42.1365 95.5627 44.1495 96.7705 45.833ZM56.6945 11.3202C55.743 12.8207 55.5966 14.6141 56.1822 16.1878C57.8291 16.0048 59.4029 15.1265 60.3544 13.5893C61.306 12.0887 61.4524 10.2954 60.8668 8.72163C59.2199 8.90463 57.6461 9.783 56.6945 11.3202ZM45.3122 9.08762C46.3736 7.44067 46.52 5.50092 45.8978 3.78076C44.1045 3.96376 42.3844 4.91533 41.3596 6.56229C40.2982 8.20925 40.1518 10.149 40.774 11.8691C42.5673 11.6862 44.2875 10.7346 45.3122 9.08762ZM28.4401 13.1501C30.7093 12.4547 32.3928 10.7712 33.198 8.68503C31.4046 7.40407 29.0257 6.96488 26.7566 7.66026C24.4874 8.35564 22.8039 10.0392 21.9987 12.1253C23.792 13.4063 26.171 13.8455 28.4401 13.1501ZM55.6698 5.57412C57.6461 6.37929 59.7689 6.1963 61.4891 5.20813C60.9767 3.30498 59.5859 1.65802 57.6461 0.852842C55.6698 0.047664 53.5471 0.230659 51.8269 1.21883C52.3393 3.12198 53.73 4.76894 55.6698 5.57412ZM11.385 28.5217C13.0685 28.3387 14.4959 27.4237 15.3011 26.0696C14.2031 24.935 12.6293 24.3128 10.9458 24.4592C9.26221 24.6056 7.83488 25.5572 7.0297 26.9113C8.12767 28.0459 9.70144 28.6681 11.385 28.5217ZM21.1569 20.5797C21.5229 22.4829 22.7307 24.02 24.341 24.8252C25.5122 23.471 26.0978 21.6045 25.7318 19.7013C25.5488 18.64 25.073 17.725 24.4142 16.9564C30.5995 20.2869 37.2605 22.7025 44.0679 24.0566L44.3973 22.4829C41.5791 21.9339 38.7611 21.1653 35.9795 20.2503C40.4446 18.64 44.6901 16.261 48.3866 13.2965L47.3618 12.0155C43.2993 15.2729 38.5048 17.7982 33.4908 19.3353C28.5499 17.4688 23.792 15.0167 19.4368 12.1253L18.5218 13.4795C19.7296 14.2847 20.9739 15.0533 22.2183 15.7852C21.1935 17.1028 20.7177 18.823 21.0837 20.6163L21.1569 20.5797ZM7.98125 67.7193C14.7521 70.757 20.7543 75.1123 25.6586 80.5655L26.8664 79.5041C23.0601 75.2587 18.595 71.6354 13.6175 68.7806L13.4345 53.9946C15.2645 54.2508 17.2042 53.7018 18.6682 52.3477C20.1687 50.9569 20.8641 49.0172 20.6811 47.114C18.8146 46.8212 16.8016 47.3336 15.3011 48.7244C14.2763 49.6759 13.6541 50.8471 13.3979 52.0915V48.578H11.7509L11.9706 67.8291C8.74987 66.1089 5.34611 64.7181 1.79601 63.6568L1.32026 65.1939C3.33321 65.7795 5.27292 66.5115 7.17607 67.3167C5.67551 68.8904 4.87038 71.123 5.16317 73.4653C5.45596 75.8442 6.88329 77.8572 8.78644 78.9918C10.3602 77.3814 11.202 75.1123 10.9092 72.7333C10.653 70.6472 9.51843 68.8538 7.94467 67.6461L7.98125 67.7193ZM30.1969 83.896C34.9914 82.7981 39.859 82.0295 44.7267 81.6269C44.6169 83.5666 45.2391 85.5064 46.6664 87.0435C48.2402 88.6905 50.4361 89.4225 52.5589 89.2395C52.8883 87.1167 52.2295 84.9208 50.6557 83.2372C49.8505 82.3955 48.899 81.8099 47.8742 81.4439C55.6332 81.0413 63.3922 81.5171 70.9316 82.9078L71.4074 80.3459C51.5341 76.6128 35.2841 80.2361 35.2841 80.2361C33.8934 80.4923 32.5026 80.7485 31.1119 81.0413C33.4176 73.4653 34.2594 65.4135 33.5274 57.4715C32.9784 51.6157 30.9654 45.0279 28.0009 38.5864C29.5747 37.8179 30.8923 36.5003 31.6242 34.7435C32.5758 32.511 32.3562 30.0589 31.2582 28.1191C29.0989 28.7047 27.1958 30.2419 26.2442 32.4744C26.0246 33.0234 25.8416 33.5724 25.7684 34.1214C22.4379 27.9727 18.3022 22.2267 13.7639 17.7616L11.568 19.9941C17.2408 25.5938 22.2915 33.2796 25.7684 41.1484C21.4131 39.0622 16.4356 38.1838 11.6046 38.5864C11.8608 38.5498 12.0804 38.5132 12.3 38.44C12.3 36.1709 11.2386 33.975 9.33545 32.511C7.39571 31.047 4.98018 30.6444 2.82083 31.1934C2.82083 33.4626 3.8822 35.6585 5.78534 37.1225C7.21271 38.2204 8.93283 38.7328 10.6164 38.6596C7.21268 39.0622 3.88215 40.087 0.881034 41.7705L1.68622 43.1979C9.37201 38.9158 19.2903 39.0622 26.7931 43.4907C28.7329 48.395 30.0505 53.2626 30.453 57.6911C30.4896 58.2401 30.5262 58.7525 30.5628 59.3015C30.1969 58.1303 29.4283 57.0689 28.3303 56.337C26.8297 55.3488 25.0364 55.1658 23.4627 55.6782C23.5725 57.3251 24.4508 58.9355 25.9148 59.9237C27.3422 60.8752 29.0623 61.0948 30.5995 60.619C30.7825 64.6083 30.5263 68.5976 29.8675 72.5137C29.5747 71.7085 29.1721 70.9034 28.6597 70.1714C27.0128 67.9754 24.4874 66.7677 21.9621 66.6945C21.3033 69.1466 21.7059 71.8915 23.3528 74.1241C24.7436 75.9906 26.7199 77.1252 28.8427 77.4546C27.3421 83.4202 24.89 89.1297 21.5595 94.3267L24.1946 96.0103C26.6468 92.1674 28.6231 88.0683 30.1602 83.8228L30.1969 83.896ZM54.6084 17.8714C54.0594 16.8466 53.181 16.0048 52.0099 15.529C50.4727 14.9069 48.8258 15.0533 47.4716 15.8218C47.8742 17.3224 48.9356 18.6034 50.4727 19.2255C51.9367 19.8477 53.5104 19.7013 54.828 19.0426C55.3038 21.6411 55.4136 24.3128 55.1208 26.9479C52.5589 30.6078 49.631 33.975 46.3736 36.9761C47.0324 35.8415 47.435 34.5239 47.5082 33.0966C47.6546 30.3151 46.4834 27.7531 44.5437 26.0696C42.4209 27.5335 40.9936 29.9491 40.8472 32.7306C40.7008 35.3657 41.7255 37.7447 43.4823 39.4648C40.1152 42.1731 36.4919 44.5155 32.5758 46.4186L33.7104 48.761C44.8365 43.3443 53.9131 34.6703 60.1715 23.837C61.9648 25.2644 64.3072 25.8866 66.7227 25.3742C69.1748 24.8618 71.1146 23.2148 72.1393 21.1287C70.346 19.6281 67.8938 18.9328 65.4417 19.4817C63.7581 19.8477 62.3308 20.7261 61.2694 21.9339C64.2705 16.2976 66.5397 10.1124 67.967 3.52457L65.4417 2.97559C63.7947 10.7346 60.8669 17.9446 56.9142 24.2762C56.9874 15.3827 52.8883 6.45249 45.8978 0.816243L44.8731 2.06061C49.8139 6.0499 53.2177 11.796 54.6084 17.908V17.8714ZM40.774 102.452L41.9086 103.623C44.6535 100.988 47.3618 98.6454 50.1799 96.5959C49.7773 97.4011 49.5577 98.316 49.5577 99.3042C49.5577 101.244 50.4727 103.001 51.9001 104.135C53.3274 103.037 54.2424 101.281 54.279 99.3408C54.279 97.6573 53.5836 96.1201 52.4857 95.0221C54.279 93.8144 56.109 92.7164 57.9755 91.6916C56.8776 95.5711 56.9507 99.8532 58.3049 103.769L59.8421 103.257C58.4513 99.1578 58.5245 94.5829 60.0617 90.6302C63.868 88.7637 67.8939 87.2997 72.2125 86.1286L71.8099 84.5548C59.9153 87.7389 50.363 93.2654 40.8472 102.488L40.774 102.452Z" fill="#F1D1C0"/>
<path d="M120.488 68.7281L121.403 67.6301C121.733 67.9961 122.318 68.2889 123.123 68.2889C123.819 68.2889 124.221 68.0693 124.221 67.7033C124.221 67.4471 124.038 67.2641 123.489 67.1909L122.465 67.0079C121.293 66.8249 120.708 66.1296 120.708 65.2878C120.708 64.0434 121.952 63.165 123.563 63.165C124.661 63.165 125.612 63.5676 125.978 64.1532L124.99 65.178C124.661 64.7388 124.112 64.4826 123.489 64.4826C122.904 64.4826 122.574 64.7022 122.574 65.0682C122.574 65.361 122.757 65.5074 123.453 65.6172L124.258 65.7636C125.466 65.9832 126.015 66.5687 126.015 67.4471C126.015 68.7281 124.697 69.5699 122.94 69.5699C121.806 69.5699 120.818 69.2039 120.415 68.6915L120.488 68.7281Z" fill="#F1D1C0"/>
<path d="M128.246 67.3749V63.3491H128.904C129.6 63.3491 129.856 63.3491 130.185 63.2393V66.9724C130.185 67.7043 130.478 67.9971 131.064 67.9971C131.942 67.9971 132.528 67.3749 132.528 66.3136V63.3491H133.186C133.882 63.3491 134.138 63.3491 134.467 63.2393V69.4977H132.528V68.4729C132.088 69.2049 131.283 69.6441 130.332 69.6441C129.051 69.6441 128.209 68.9121 128.209 67.4115L128.246 67.3749Z" fill="#F1D1C0"/>
<path d="M136.628 68.7281L137.543 67.6301C137.872 67.9961 138.458 68.2889 139.263 68.2889C139.958 68.2889 140.361 68.0693 140.361 67.7033C140.361 67.4471 140.178 67.2641 139.629 67.1909L138.604 67.0079C137.433 66.8249 136.847 66.1296 136.847 65.2878C136.847 64.0434 138.092 63.165 139.702 63.165C140.8 63.165 141.752 63.5676 142.118 64.1532L141.13 65.178C140.8 64.7388 140.251 64.4826 139.629 64.4826C139.043 64.4826 138.714 64.7022 138.714 65.0682C138.714 65.361 138.897 65.5074 139.592 65.6172L140.398 65.7636C141.605 65.9832 142.154 66.5687 142.154 67.4471C142.154 68.7281 140.837 69.5699 139.08 69.5699C137.945 69.5699 136.957 69.2039 136.555 68.6915L136.628 68.7281Z" fill="#F1D1C0"/>
<path d="M144.79 67.1171V64.8114H143.729V63.5304H143.838C144.826 63.384 145.375 62.7618 145.375 61.7736V61.4076H145.449C146.034 61.4076 146.364 61.4076 146.73 61.2979V63.3108H148.999V64.7748H146.73V67.3733C146.73 67.8857 146.986 68.1785 147.315 68.1785C147.645 68.1785 148.011 67.8491 148.194 67.4099L149.511 68.2151C149.145 69.0934 148.267 69.5692 147.242 69.5692C145.741 69.5692 144.753 68.5811 144.753 67.0805L144.79 67.1171Z" fill="#F1D1C0"/>
<path d="M150.975 67.9224C150.975 66.4951 152.475 66.2023 153.72 66.0559C154.488 65.9461 154.854 65.9095 154.854 65.3605C154.854 64.8847 154.561 64.6285 153.903 64.6285C153.244 64.6285 152.768 64.8847 152.548 65.3605L151.267 64.6285C151.743 63.677 152.841 63.2012 154.159 63.2012C155.769 63.2012 156.794 63.9332 156.794 65.6167V69.4962H154.927V68.6544C154.561 69.3132 153.939 69.6426 153.024 69.6426C151.743 69.6426 150.975 68.9838 150.975 67.9224ZM154.891 67.1905V66.5317C154.708 66.8245 154.452 66.8977 153.939 66.9709C153.463 67.0441 152.805 67.1173 152.805 67.7394C152.805 68.1786 153.061 68.4348 153.646 68.4348C154.342 68.4348 154.854 68.0688 154.854 67.1905H154.891Z" fill="#F1D1C0"/>
<path d="M159.21 61.3724C159.21 60.7502 159.686 60.2744 160.345 60.2744C161.003 60.2744 161.443 60.7502 161.443 61.3724C161.443 61.9946 160.967 62.4704 160.345 62.4704C159.722 62.4704 159.21 61.9946 159.21 61.3724ZM159.356 63.3487H160.015C160.601 63.3487 160.93 63.3487 161.296 63.2389V69.4974H159.356V63.3487Z" fill="#F1D1C0"/>
<path d="M163.93 63.3476H164.589C165.284 63.3476 165.54 63.3476 165.87 63.2378V64.3723C166.309 63.6404 167.114 63.2012 168.066 63.2012C169.383 63.2012 170.189 63.9332 170.189 65.4337V69.4596H168.249V65.8363C168.249 65.0677 167.919 64.8115 167.334 64.8115C166.419 64.8115 165.833 65.4337 165.833 66.4951V69.4596H163.894V63.311L163.93 63.3476Z" fill="#F1D1C0"/>
<path d="M172.348 67.9224C172.348 66.4951 173.848 66.2023 175.093 66.0559C175.861 65.9461 176.227 65.9095 176.227 65.3605C176.227 64.8847 175.934 64.6285 175.276 64.6285C174.617 64.6285 174.141 64.8847 173.921 65.3605L172.64 64.6285C173.116 63.677 174.214 63.2012 175.532 63.2012C177.142 63.2012 178.167 63.9332 178.167 65.6167V69.4962H176.3V68.6544C175.934 69.3132 175.312 69.6426 174.397 69.6426C173.116 69.6426 172.348 68.9838 172.348 67.9224ZM176.264 67.1905V66.5317C176.081 66.8245 175.825 66.8977 175.312 66.9709C174.836 67.0441 174.178 67.1173 174.178 67.7394C174.178 68.1786 174.434 68.4348 175.019 68.4348C175.715 68.4348 176.227 68.0688 176.227 67.1905H176.264Z" fill="#F1D1C0"/>
<path d="M182.742 68.3627V69.4606H180.803V60.1645H181.462C182.157 60.1645 182.413 60.1645 182.742 60.0547V64.41C183.072 63.7146 183.804 63.1656 184.682 63.1656C186.256 63.1656 187.647 64.6296 187.647 66.3863C187.647 68.1431 186.219 69.607 184.682 69.607C183.804 69.607 183.035 69.058 182.742 68.3627ZM185.67 66.4229C185.67 65.4713 185.012 64.8126 184.17 64.8126C183.401 64.8126 182.706 65.4713 182.706 66.4229C182.706 67.3745 183.401 68.0333 184.17 68.0333C185.012 68.0333 185.67 67.3745 185.67 66.4229Z" fill="#F1D1C0"/>
<path d="M189.88 60.1645H190.539C191.234 60.1645 191.49 60.1645 191.82 60.0547V69.4606H189.88V60.1645Z" fill="#F1D1C0"/>
<path d="M194.015 66.4219C194.015 64.7017 195.552 63.2012 197.272 63.2012C198.992 63.2012 200.383 64.6285 200.383 66.7147H195.954C196.028 67.5199 196.577 68.1786 197.601 68.1786C198.333 68.1786 198.772 67.8858 198.992 67.3735L200.31 68.1054C199.834 69.0204 198.919 69.6426 197.455 69.6426C195.442 69.6426 193.941 68.2152 193.941 66.4585L194.015 66.4219ZM195.991 65.7265H198.443C198.407 65.0311 197.967 64.4821 197.235 64.4821C196.467 64.4821 196.064 65.0311 195.954 65.7265H195.991Z" fill="#F1D1C0"/>
<path d="M120.488 80.2217C120.488 78.5015 122.025 77.001 123.746 77.001C125.466 77.001 126.857 78.4283 126.857 80.5145H122.428C122.501 81.3197 123.05 81.9784 124.075 81.9784C124.807 81.9784 125.246 81.6856 125.466 81.1733L126.783 81.9052C126.308 82.8202 125.393 83.4424 123.929 83.4424C121.916 83.4424 120.415 82.015 120.415 80.2583L120.488 80.2217ZM122.428 79.5263H124.88C124.844 78.8309 124.404 78.2819 123.672 78.2819C122.904 78.2819 122.501 78.8309 122.391 79.5263H122.428Z" fill="#F1D1C0"/>
<path d="M128.649 80.2217C128.649 78.5015 130.223 77.001 132.236 77.001C133.334 77.001 134.286 77.4768 134.835 78.3917L133.517 79.4531C133.151 78.8309 132.675 78.5381 132.126 78.5381C131.285 78.5381 130.662 79.2335 130.662 80.2583C130.662 81.2831 131.248 81.9052 132.2 81.9052C132.895 81.9052 133.407 81.6125 133.664 81.0635L134.944 81.9052C134.395 82.8568 133.444 83.4424 132.163 83.4424C130.223 83.4424 128.686 82.015 128.686 80.2583L128.649 80.2217Z" fill="#F1D1C0"/>
<path d="M136.444 80.2217C136.444 78.5015 138.018 77.001 139.885 77.001C141.751 77.001 143.325 78.5015 143.325 80.2217C143.325 81.9418 141.751 83.4424 139.885 83.4424C138.018 83.4424 136.444 81.9418 136.444 80.2217ZM141.312 80.2217C141.312 79.2701 140.69 78.6113 139.848 78.6113C139.006 78.6113 138.384 79.2701 138.384 80.2217C138.384 81.1733 139.006 81.832 139.848 81.832C140.69 81.832 141.312 81.1733 141.312 80.2217Z" fill="#F1D1C0"/>
<path d="M145.777 79.0869H149.547V80.6241H145.777V79.0869Z" fill="#F1D1C0"/>
<path d="M151.23 77.1475H153.207L154.781 81.1734L156.391 77.1475H158.148L155.586 83.2961H153.829L151.267 77.1475H151.23Z" fill="#F1D1C0"/>
<path d="M159.793 75.1702C159.793 74.5481 160.269 74.0723 160.928 74.0723C161.586 74.0723 162.026 74.5481 162.026 75.1702C162.026 75.7924 161.55 76.2682 160.928 76.2682C160.305 76.2682 159.793 75.7924 159.793 75.1702ZM159.939 77.1466H160.598C161.184 77.1466 161.513 77.1466 161.879 77.0368V83.2952H159.939V77.1466Z" fill="#F1D1C0"/>
<path d="M164.479 73.9994H165.138C165.834 73.9994 166.09 73.9994 166.419 73.8896V83.2956H164.479V73.9994Z" fill="#F1D1C0"/>
<path d="M169.017 73.9994H169.675C170.371 73.9994 170.627 73.9994 170.956 73.8896V83.2956H169.017V73.9994Z" fill="#F1D1C0"/>
<path d="M173.154 81.7222C173.154 80.2949 174.655 80.0021 175.899 79.8557C176.668 79.7459 177.034 79.7093 177.034 79.1603C177.034 78.6845 176.741 78.4283 176.082 78.4283C175.423 78.4283 174.948 78.6845 174.728 79.1603L173.447 78.4283C173.923 77.4768 175.021 77.001 176.338 77.001C177.949 77.001 178.974 77.733 178.974 79.4165V83.296H177.107V82.4542C176.741 83.113 176.119 83.4424 175.204 83.4424C173.923 83.4424 173.154 82.7836 173.154 81.7222ZM177.07 81.0269V80.3681C176.887 80.6609 176.631 80.7341 176.119 80.8073C175.643 80.8805 174.984 80.9537 174.984 81.5759C174.984 82.015 175.24 82.2712 175.826 82.2712C176.521 82.2712 177.034 81.9052 177.034 81.0269H177.07Z" fill="#F1D1C0"/>
<path d="M181.022 82.564L181.937 81.4661C182.267 81.832 182.852 82.1248 183.658 82.1248C184.353 82.1248 184.755 81.9052 184.755 81.5393C184.755 81.2831 184.573 81.1001 184.024 81.0269L182.999 80.8439C181.828 80.6609 181.242 79.9655 181.242 79.1237C181.242 77.8794 182.486 77.001 184.097 77.001C185.195 77.001 186.146 77.4036 186.512 77.9892L185.524 79.0139C185.195 78.5747 184.646 78.3185 184.024 78.3185C183.438 78.3185 183.109 78.5381 183.109 78.9041C183.109 79.1969 183.292 79.3433 183.987 79.4531L184.792 79.5995C186 79.8191 186.549 80.4047 186.549 81.2831C186.549 82.564 185.231 83.4058 183.475 83.4058C182.34 83.4058 181.352 83.0398 180.949 82.5274L181.022 82.564Z" fill="#F1D1C0"/>
<path d="M122.831 26.2747V29.2758L124.514 31.4717L127.076 32.3135L129.675 31.4717L130.846 29.898H133.518L131.102 33.1919L127.076 34.5095L123.087 33.1919L120.488 29.898V25.6525L123.087 22.3586L127.076 21.041L131.102 22.3586L133.518 25.6525H130.846L129.675 24.0787L127.076 23.237L124.514 24.0787L122.831 26.2747Z" fill="#F1D1C0"/>
<path d="M145.923 31.9843H139.665L138.787 34.2534H136.298L141.824 21.334H143.728L149.254 34.2534H146.765L145.887 31.9843H145.923ZM140.434 30.008H145.118L142.776 23.9691L140.434 30.008Z" fill="#F1D1C0"/>
<path d="M159.868 27.4093L161.551 29.5687V31.3986L159.722 33.5946L156.94 34.5461L153.975 33.5946L152.146 30.5568H154.561L155.256 31.911L156.903 32.6064L158.477 32.0208L159.282 30.996V30.1543L158.477 29.1661L154.085 27.7753L152.585 25.982V24.2618L153.975 22.1391L156.72 21.1875L159.539 22.1391L161.002 24.701H158.66L158.221 23.7494L156.72 23.2004L155.33 23.7494L154.817 24.701V25.2866L155.293 26.0552L159.831 27.5923L159.868 27.4093Z" fill="#F1D1C0"/>
<path d="M174.14 31.9843H167.882L167.003 34.2534H164.515L170.041 21.334H171.944L177.471 34.2534H174.982L174.104 31.9843H174.14ZM168.687 30.008H173.372L171.029 23.9691L168.687 30.008Z" fill="#F1D1C0"/>
<path d="M128.172 44.5734L129.855 46.7327V48.5627L128.025 50.7586L125.244 51.7102L122.279 50.7586L120.449 47.7209H122.865L123.56 49.0751L125.207 49.7705L126.781 49.1849L127.586 48.1601V47.3183L126.781 46.3302L122.389 44.9394L120.888 43.146V41.4259L122.279 39.3031L125.024 38.3516L127.842 39.3031L129.306 41.8651H126.964L126.525 40.9135L125.024 40.3645L123.633 40.9135L123.121 41.8651V42.4507L123.597 43.2192L128.135 44.7564L128.172 44.5734Z" fill="#F1D1C0"/>
<path d="M134.137 38.4609H142.811V40.5471H136.48V43.8044H142.665V45.8905H136.48V49.3674H142.921V51.4536H134.101V38.5341L134.137 38.4609Z" fill="#F1D1C0"/>
<path d="M147.533 38.4609H149.876V49.3308H155.841V51.417H147.533V38.4975V38.4609Z" fill="#F1D1C0"/>
<path d="M164.331 51.3804H162.208L157.268 38.4609H159.646L163.306 48.5623L166.966 38.4609H169.345L164.404 51.3804H164.331Z" fill="#F1D1C0"/>
<path d="M180.29 49.1484H174.031L173.153 51.4175H170.664L176.191 38.498H178.094L183.62 51.4175H181.131L180.253 49.1484H180.29ZM174.8 47.172H179.484L177.142 41.1332L174.8 47.172Z" fill="#F1D1C0"/>
<path d="M192.331 44.8295H199.651V46.9156L197.163 50.356L193.137 51.6735L189.147 50.356L186.549 47.062V42.8166L189.147 39.5226L193.137 38.2051L197.163 39.5226L199.578 42.8166H196.906L195.735 41.2428L193.137 40.401L190.575 41.2428L188.891 43.4387V46.4399L190.575 48.6358L193.137 49.5142L195.735 48.6358L196.98 46.9156H192.331V44.8295Z" fill="#F1D1C0"/>
<path d="M209.531 44.8295H216.851V46.9156L214.362 50.356L210.336 51.6735L206.347 50.356L203.748 47.062V42.8166L206.347 39.5226L210.336 38.2051L214.362 39.5226L216.777 42.8166H214.106L212.934 41.2428L210.336 40.401L207.774 41.2428L206.09 43.4387V46.4399L207.774 48.6358L210.336 49.5142L212.934 48.6358L214.179 46.9156H209.531V44.8295Z" fill="#F1D1C0"/>
<path d="M223.696 38.4609V51.3804H221.354V38.4609H223.696Z" fill="#F1D1C0"/>
<path d="M234.895 38.2051L238.885 39.5226L241.483 42.8166V47.062L238.885 50.356L234.895 51.6735L230.906 50.356L228.308 47.062V42.8166L230.906 39.5226L234.895 38.2051ZM239.178 46.4399V43.4387L237.494 41.2428L234.932 40.401L232.37 41.2428L230.687 43.4387V46.4399L232.37 48.6358L234.932 49.4776L237.494 48.6358L239.178 46.4399Z" fill="#F1D1C0"/>
</svg>
